<svg xmlns="http://www.w3.org/2000/svg" viewBox="0 0 415 132" width="415" height="132">
<g transform="translate(0 15) scale(1.6)">
<rect width="64" height="64" rx="14" fill="#F4EBD9"/>
<g transform="translate(-98.34 -3.36) scale(0.52)">
<path d="M 216.6 113.0 C 240.6 87.0 270.6 89.0 284.6 113.0 C 286.6 119.0 278.6 122.0 264.6 122.0 C 240.6 122.0 222.6 119.0 216.6 113.0 Z" fill="#6B4A33"/>
<path d="M 234.6 113.0 C 252.6 95.0 268.6 96.0 277.6 113.0 C 277.6 118.0 270.6 119.0 258.6 119.0 C 244.6 119.0 236.6 117.0 234.6 113.0 Z" fill="#A06C48"/>
<path d="M 260.65 96 C 262.84999999999997 77 262.84999999999997 63 260.65 52.85" stroke="#4C8C3F" stroke-width="12.5" stroke-linecap="round" fill="none"/>
<path d="M 263.65 39.40 Q 248.25 32.20 249.15 17.00 Q 267.45 14.60 263.65 39.40 Z" fill="#5FA052"/>
</g>
</g>
<g transform="translate(126 0)">
<path transform="translate(16.0 95) scale(0.1 -0.1)" d="M232 -10Q149 -10 107.0 37.5Q65 85 65 177V650Q65 681 81.0 697.0Q97 713 127 713Q157 713 173.5 697.0Q190 681 190 650V183Q190 137 209.5 115.0Q229 93 265 93Q273 93 280.0 93.5Q287 94 294 95Q308 97 313.0 87.5Q318 78 318 49Q318 24 308.0 10.0Q298 -4 275 -7Q265 -8 254.0 -9.0Q243 -10 232 -10Z" fill="#45311F"/>
<path transform="translate(47.9 95) scale(0.1 -0.1)" d="M288 -10Q212 -10 156.0 21.0Q100 52 69.0 109.5Q38 167 38 245Q38 304 55.5 350.5Q73 397 106.0 430.5Q139 464 185.0 481.5Q231 499 288 499Q364 499 420.0 468.0Q476 437 507.0 380.0Q538 323 538 245Q538 186 520.5 139.0Q503 92 470.0 58.5Q437 25 391.0 7.5Q345 -10 288 -10ZM288 85Q325 85 353.0 103.0Q381 121 396.5 156.5Q412 192 412 245Q412 325 378.0 364.5Q344 404 288 404Q251 404 223.0 386.5Q195 369 179.5 333.5Q164 298 164 245Q164 166 198.0 125.5Q232 85 288 85Z" fill="#45311F"/>
<path transform="translate(105.5 95) scale(0.1 -0.1)" d="M226 -10Q173 -10 131.5 10.5Q90 31 66.5 66.0Q43 101 43 145Q43 199 71.0 230.5Q99 262 162.0 276.0Q225 290 331 290H381V218H332Q270 218 233.0 212.0Q196 206 180.5 191.5Q165 177 165 151Q165 118 188.0 97.0Q211 76 252 76Q285 76 310.5 91.5Q336 107 351.0 134.0Q366 161 366 196V311Q366 361 344.0 383.0Q322 405 270 405Q241 405 207.5 398.0Q174 391 137 374Q118 365 103.5 369.0Q89 373 81.0 385.5Q73 398 73.0 413.0Q73 428 81.0 442.5Q89 457 108 464Q154 483 196.5 491.0Q239 499 274 499Q346 499 392.5 477.0Q439 455 462.0 410.5Q485 366 485 296V56Q485 25 470.0 8.5Q455 -8 427 -8Q399 -8 383.5 8.5Q368 25 368 56V104H376Q369 69 348.5 43.5Q328 18 297.0 4.0Q266 -10 226 -10Z" fill="#45311F"/>
<path transform="translate(160.2 95) scale(0.1 -0.1)" d="M129 -8Q99 -8 83.0 8.5Q67 25 67 56V434Q67 465 83.0 481.0Q99 497 128 497Q157 497 173.0 481.0Q189 465 189 434V361L178 391Q198 441 240.0 470.0Q282 499 340 499Q399 499 437.0 471.0Q475 443 490 385H476Q496 438 542.0 468.5Q588 499 648 499Q704 499 740.5 477.0Q777 455 795.0 410.5Q813 366 813 298V56Q813 25 796.5 8.5Q780 -8 750 -8Q720 -8 704.0 8.5Q688 25 688 56V293Q688 349 669.5 375.0Q651 401 607 401Q558 401 530.0 366.5Q502 332 502 271V56Q502 25 486.0 8.5Q470 -8 440 -8Q410 -8 393.5 8.5Q377 25 377 56V293Q377 349 358.5 375.0Q340 401 297 401Q248 401 220.0 366.5Q192 332 192 271V56Q192 -8 129 -8Z" fill="#45311F"/>
<path d="M 216.6 113.0 C 240.6 87.0 270.6 89.0 284.6 113.0 C 286.6 119.0 278.6 122.0 264.6 122.0 C 240.6 122.0 222.6 119.0 216.6 113.0 Z" fill="#6B4A33"/>
<path d="M 234.6 113.0 C 252.6 95.0 268.6 96.0 277.6 113.0 C 277.6 118.0 270.6 119.0 258.6 119.0 C 244.6 119.0 236.6 117.0 234.6 113.0 Z" fill="#A06C48"/>
<path d="M 260.65 96 C 262.84999999999997 77 262.84999999999997 63 260.65 52.85" stroke="#4C8C3F" stroke-width="12.5" stroke-linecap="round" fill="none"/>
<path d="M 263.65 39.40 Q 248.25 32.20 249.15 17.00 Q 267.45 14.60 263.65 39.40 Z" fill="#5FA052"/>
</g>
</svg>