<svg xmlns="http://www.w3.org/2000/svg" viewBox="0 0 78 116" width="78" height="116">
<g transform="translate(-212.65 -10.60)">
<path d="M 216.6 113.0 C 240.6 87.0 270.6 89.0 284.6 113.0 C 286.6 119.0 278.6 122.0 264.6 122.0 C 240.6 122.0 222.6 119.0 216.6 113.0 Z" fill="#6B4A33"/>
<path d="M 234.6 113.0 C 252.6 95.0 268.6 96.0 277.6 113.0 C 277.6 118.0 270.6 119.0 258.6 119.0 C 244.6 119.0 236.6 117.0 234.6 113.0 Z" fill="#A06C48"/>
<path d="M 260.65 96 C 262.84999999999997 77 262.84999999999997 63 260.65 52.85" stroke="#4C8C3F" stroke-width="12.5" stroke-linecap="round" fill="none"/>
<path d="M 263.65 39.40 Q 248.25 32.20 249.15 17.00 Q 267.45 14.60 263.65 39.40 Z" fill="#5FA052"/>
</g>
</svg>